<?xml version="1.0" encoding="utf-8"?>
<!-- Generator: Adobe Illustrator 27.5.0, SVG Export Plug-In . SVG Version: 6.00 Build 0)  -->
<svg version="1.1" xmlns="http://www.w3.org/2000/svg" xmlns:xlink="http://www.w3.org/1999/xlink" x="0px" y="0px"
	 viewBox="0 0 500 500" style="enable-background:new 0 0 500 500;" xml:space="preserve">
<g id="BACKGROUND">
	<radialGradient id="SVGID_1_" cx="250" cy="250" r="250" gradientUnits="userSpaceOnUse">
		<stop  offset="0" style="stop-color:#333C56"/>
		<stop  offset="1" style="stop-color:#222633"/>
	</radialGradient>
	<rect style="fill:url(#SVGID_1_);" width="500" height="500"/>
</g>
<g id="OBJECTS">
	<g>
		<g>
			<g>
				<g>
					
						<linearGradient id="SVGID_00000013162801953705098940000008080301288636465546_" gradientUnits="userSpaceOnUse" x1="129.8506" y1="192.3682" x2="129.8506" y2="173.2563">
						<stop  offset="0" style="stop-color:#A8FF78"/>
						<stop  offset="1" style="stop-color:#78FFD6"/>
					</linearGradient>
					<path style="fill:url(#SVGID_00000013162801953705098940000008080301288636465546_);" d="M49.968,177.164h-6.884v3.774h6.087
						v3.509h-6.087v4.093h6.884v3.642h-11.43v-18.66h11.43V177.164z"/>
					
						<linearGradient id="SVGID_00000083772741318909754150000009358687155414893236_" gradientUnits="userSpaceOnUse" x1="129.8506" y1="192.3682" x2="129.8506" y2="173.2563">
						<stop  offset="0" style="stop-color:#A8FF78"/>
						<stop  offset="1" style="stop-color:#78FFD6"/>
					</linearGradient>
					<path style="fill:url(#SVGID_00000083772741318909754150000009358687155414893236_);" d="M57.999,173.522v15.151h5.954v3.509
						h-10.5v-18.66H57.999z"/>
					
						<linearGradient id="SVGID_00000023265822342098572280000011529306853330872721_" gradientUnits="userSpaceOnUse" x1="129.8506" y1="192.3682" x2="129.8506" y2="173.2563">
						<stop  offset="0" style="stop-color:#A8FF78"/>
						<stop  offset="1" style="stop-color:#78FFD6"/>
					</linearGradient>
					<path style="fill:url(#SVGID_00000023265822342098572280000011529306853330872721_);" d="M78.097,177.164h-6.884v3.774H77.3
						v3.509h-6.087v4.093h6.884v3.642h-11.43v-18.66h11.43V177.164z"/>
					
						<linearGradient id="SVGID_00000029736902800923099490000002427824483598466471_" gradientUnits="userSpaceOnUse" x1="129.8506" y1="192.3682" x2="129.8506" y2="173.2563">
						<stop  offset="0" style="stop-color:#A8FF78"/>
						<stop  offset="1" style="stop-color:#78FFD6"/>
					</linearGradient>
					<path style="fill:url(#SVGID_00000029736902800923099490000002427824483598466471_);" d="M90.195,173.31
						c4.439,0,7.788,2.499,8.852,6.539h-4.998c-0.771-1.595-2.18-2.392-3.907-2.392c-2.791,0-4.705,2.073-4.705,5.369
						s1.914,5.369,4.705,5.369c1.728,0,3.137-0.797,3.907-2.392h4.998c-1.063,4.041-4.413,6.512-8.852,6.512
						c-5.502,0-9.383-3.907-9.383-9.489S84.692,173.31,90.195,173.31z"/>
					
						<linearGradient id="SVGID_00000171678547367162531950000006583025643770769291_" gradientUnits="userSpaceOnUse" x1="129.8506" y1="192.3682" x2="129.8506" y2="173.2563">
						<stop  offset="0" style="stop-color:#A8FF78"/>
						<stop  offset="1" style="stop-color:#78FFD6"/>
					</linearGradient>
					<path style="fill:url(#SVGID_00000171678547367162531950000006583025643770769291_);" d="M101.364,173.522h14.434v3.642h-4.944
						v15.018h-4.545v-15.018h-4.944V173.522z"/>
					
						<linearGradient id="SVGID_00000043423384224796808330000012598630947526312835_" gradientUnits="userSpaceOnUse" x1="129.8506" y1="192.3682" x2="129.8506" y2="173.2563">
						<stop  offset="0" style="stop-color:#A8FF78"/>
						<stop  offset="1" style="stop-color:#78FFD6"/>
					</linearGradient>
					<path style="fill:url(#SVGID_00000043423384224796808330000012598630947526312835_);" d="M126.248,173.522
						c4.572,0,6.858,2.631,6.858,5.875c0,2.339-1.276,4.545-4.147,5.396l4.306,7.39h-5.13l-3.881-7.044h-1.09v7.044h-4.545v-18.66
						H126.248z M125.981,177.297h-2.817v4.625h2.817c1.701,0,2.499-0.877,2.499-2.339
						C128.48,178.201,127.683,177.297,125.981,177.297z"/>
					
						<linearGradient id="SVGID_00000166652877565687916620000003524976462339644599_" gradientUnits="userSpaceOnUse" x1="129.8506" y1="192.3682" x2="129.8506" y2="173.2563">
						<stop  offset="0" style="stop-color:#A8FF78"/>
						<stop  offset="1" style="stop-color:#78FFD6"/>
					</linearGradient>
					<path style="fill:url(#SVGID_00000166652877565687916620000003524976462339644599_);" d="M145.31,192.368
						c-5.29,0-9.596-3.96-9.596-9.569c0-5.609,4.306-9.543,9.596-9.543c5.316,0,9.542,3.934,9.542,9.543
						C154.853,188.408,150.6,192.368,145.31,192.368z M145.31,188.222c2.977,0,4.917-2.153,4.917-5.422
						c0-3.323-1.94-5.423-4.917-5.423c-3.03,0-4.944,2.1-4.944,5.423C140.366,186.068,142.28,188.222,145.31,188.222z"/>
					
						<linearGradient id="SVGID_00000062152115775542475990000004971446457876830098_" gradientUnits="userSpaceOnUse" x1="129.8506" y1="192.3682" x2="129.8506" y2="173.2563">
						<stop  offset="0" style="stop-color:#A8FF78"/>
						<stop  offset="1" style="stop-color:#78FFD6"/>
					</linearGradient>
					<path style="fill:url(#SVGID_00000062152115775542475990000004971446457876830098_);" d="M174.607,173.522v18.66h-4.545
						l-7.602-11.509v11.509h-4.545v-18.66h4.545l7.602,11.563v-11.563H174.607z"/>
					
						<linearGradient id="SVGID_00000142865392191612608320000010594656400185381549_" gradientUnits="userSpaceOnUse" x1="129.8506" y1="192.3682" x2="129.8506" y2="173.2563">
						<stop  offset="0" style="stop-color:#A8FF78"/>
						<stop  offset="1" style="stop-color:#78FFD6"/>
					</linearGradient>
					<path style="fill:url(#SVGID_00000142865392191612608320000010594656400185381549_);" d="M178.44,173.522h4.545v18.66h-4.545
						V173.522z"/>
					
						<linearGradient id="SVGID_00000100381340615853517900000017206416625094822546_" gradientUnits="userSpaceOnUse" x1="129.8506" y1="192.3682" x2="129.8506" y2="173.2563">
						<stop  offset="0" style="stop-color:#A8FF78"/>
						<stop  offset="1" style="stop-color:#78FFD6"/>
					</linearGradient>
					<path style="fill:url(#SVGID_00000100381340615853517900000017206416625094822546_);" d="M195.427,173.31
						c4.439,0,7.788,2.499,8.852,6.539h-4.998c-0.771-1.595-2.18-2.392-3.907-2.392c-2.791,0-4.705,2.073-4.705,5.369
						s1.914,5.369,4.705,5.369c1.728,0,3.137-0.797,3.907-2.392h4.998c-1.063,4.041-4.413,6.512-8.852,6.512
						c-5.502,0-9.383-3.907-9.383-9.489S189.925,173.31,195.427,173.31z"/>
					
						<linearGradient id="SVGID_00000067916034846784488900000011616397513512077462_" gradientUnits="userSpaceOnUse" x1="129.8506" y1="192.3682" x2="129.8506" y2="173.2563">
						<stop  offset="0" style="stop-color:#A8FF78"/>
						<stop  offset="1" style="stop-color:#78FFD6"/>
					</linearGradient>
					<path style="fill:url(#SVGID_00000067916034846784488900000011616397513512077462_);" d="M214.358,192.368
						c-4.014,0-7.15-1.994-7.283-5.768h4.838c0.133,1.436,1.037,2.126,2.313,2.126c1.329,0,2.18-0.665,2.18-1.754
						c0-3.456-9.33-1.595-9.277-8.213c0-3.535,2.897-5.502,6.805-5.502c4.067,0,6.805,2.021,6.991,5.582h-4.917
						c-0.08-1.196-0.93-1.914-2.153-1.94c-1.09-0.026-1.914,0.532-1.914,1.701c0,3.243,9.224,1.781,9.224,8.028
						C221.163,189.763,218.717,192.368,214.358,192.368z"/>
				</g>
			</g>
			
				<text transform="matrix(1 0 0 1 79.9694 204.4094)" style="fill:#FFFFFF; font-family:'Poppins-Medium'; font-size:7.7531px; letter-spacing:1;">YOUR TAGLINE HERE</text>
		</g>
		<g>
			<g>
				
					<linearGradient id="SVGID_00000173872721999831770280000002937253644112291495_" gradientUnits="userSpaceOnUse" x1="127.4321" y1="164.5272" x2="127.4321" y2="92.2752">
					<stop  offset="0" style="stop-color:#A8FF78"/>
					<stop  offset="1" style="stop-color:#78FFD6"/>
				</linearGradient>
				<path style="fill:url(#SVGID_00000173872721999831770280000002937253644112291495_);" d="M103.289,92.275
					c-7.025,0-12.741,5.716-12.741,12.741c0,7.025,5.716,12.741,12.741,12.741c3.037,0,5.826-1.072,8.018-2.852l2.756,3.017
					c0.147,0.162,0.351,0.244,0.554,0.244c0.181,0,0.362-0.064,0.506-0.196c0.306-0.279,0.327-0.754,0.048-1.059l-2.758-3.02
					c2.234-2.297,3.618-5.425,3.618-8.875C116.031,97.991,110.315,92.275,103.289,92.275z M92.048,105.016
					c0-6.198,5.043-11.241,11.241-11.241c6.198,0,11.241,5.043,11.241,11.241c0,6.198-5.043,11.241-11.241,11.241
					C97.091,116.258,92.048,111.215,92.048,105.016z"/>
				
					<linearGradient id="SVGID_00000003792152991921098950000004723495729012452766_" gradientUnits="userSpaceOnUse" x1="127.4321" y1="164.5272" x2="127.4321" y2="92.2752">
					<stop  offset="0" style="stop-color:#A8FF78"/>
					<stop  offset="1" style="stop-color:#78FFD6"/>
				</linearGradient>
				<path style="fill:url(#SVGID_00000003792152991921098950000004723495729012452766_);" d="M151.575,139.045
					c-3.607,0-6.862,1.513-9.182,3.93l-3.121-2.659c-0.314-0.267-0.788-0.23-1.058,0.085c-0.269,0.315-0.23,0.789,0.085,1.058
					l3.123,2.661c-1.617,2.136-2.589,4.787-2.589,7.666c0,7.025,5.716,12.741,12.741,12.741s12.741-5.716,12.741-12.741
					C164.316,144.761,158.6,139.045,151.575,139.045z M151.575,163.027c-6.198,0-11.241-5.043-11.241-11.241
					c0-6.198,5.043-11.241,11.241-11.241c6.198,0,11.241,5.043,11.241,11.241C162.816,157.984,157.773,163.027,151.575,163.027z"/>
				
					<linearGradient id="SVGID_00000163046735471434760210000011072147952893530273_" gradientUnits="userSpaceOnUse" x1="127.4321" y1="164.5272" x2="127.4321" y2="92.2752">
					<stop  offset="0" style="stop-color:#A8FF78"/>
					<stop  offset="1" style="stop-color:#78FFD6"/>
				</linearGradient>
				<path style="fill:url(#SVGID_00000163046735471434760210000011072147952893530273_);" d="M151.574,146.103
					c-3.139,0-5.683,2.544-5.683,5.683c0,3.139,2.544,5.683,5.683,5.683c3.139,0,5.683-2.545,5.683-5.683
					C157.258,148.647,154.713,146.103,151.574,146.103z M151.574,153.242c-0.804,0-1.456-0.652-1.456-1.456
					c0-0.804,0.652-1.456,1.456-1.456c0.804,0,1.456,0.652,1.456,1.456C153.03,152.59,152.378,153.242,151.574,153.242z"/>
				
					<linearGradient id="SVGID_00000015351316133062581940000010031669776422935721_" gradientUnits="userSpaceOnUse" x1="127.4321" y1="164.5272" x2="127.4321" y2="92.2752">
					<stop  offset="0" style="stop-color:#A8FF78"/>
					<stop  offset="1" style="stop-color:#78FFD6"/>
				</linearGradient>
				<path style="fill:url(#SVGID_00000015351316133062581940000010031669776422935721_);" d="M103.289,99.333
					c-3.139,0-5.683,2.545-5.683,5.683c0,3.139,2.544,5.683,5.683,5.683c3.139,0,5.683-2.545,5.683-5.683
					C108.972,101.878,106.428,99.333,103.289,99.333z M103.289,106.472c-0.804,0-1.456-0.652-1.456-1.456
					c0-0.804,0.652-1.456,1.456-1.456s1.456,0.652,1.456,1.456C104.745,105.82,104.093,106.472,103.289,106.472z"/>
				
					<linearGradient id="SVGID_00000076568901202230810890000013595439318485317297_" gradientUnits="userSpaceOnUse" x1="127.4321" y1="164.5272" x2="127.4321" y2="92.2752">
					<stop  offset="0" style="stop-color:#A8FF78"/>
					<stop  offset="1" style="stop-color:#78FFD6"/>
				</linearGradient>
				<path style="fill:url(#SVGID_00000076568901202230810890000013595439318485317297_);" d="M141.661,119.228
					c0.161,0,0.324-0.052,0.462-0.16l3.231-2.536c1.559,1.662,3.768,2.707,6.221,2.707c4.709,0,8.54-3.831,8.54-8.54
					s-3.831-8.54-8.54-8.54s-8.54,3.831-8.54,8.54c0,1.718,0.514,3.315,1.39,4.656l-3.228,2.533
					c-0.326,0.256-0.383,0.727-0.127,1.053C141.217,119.13,141.438,119.228,141.661,119.228z M151.575,103.66
					c3.882,0,7.04,3.158,7.04,7.04c0,3.882-3.158,7.04-7.04,7.04c-3.882,0-7.04-3.158-7.04-7.04
					C144.535,106.818,147.693,103.66,151.575,103.66z"/>
				
					<linearGradient id="SVGID_00000001646535442928454200000015631965050133929617_" gradientUnits="userSpaceOnUse" x1="127.4321" y1="164.5272" x2="127.4321" y2="92.2752">
					<stop  offset="0" style="stop-color:#A8FF78"/>
					<stop  offset="1" style="stop-color:#78FFD6"/>
				</linearGradient>
				<path style="fill:url(#SVGID_00000001646535442928454200000015631965050133929617_);" d="M135.924,122.025l-3.232,2.535
					c-1.559-1.661-3.767-2.707-6.22-2.707c-1.947,0-3.738,0.662-5.176,1.763l-2.769-3.032c-0.277-0.306-0.754-0.328-1.06-0.048
					c-0.306,0.279-0.327,0.754-0.048,1.06l2.769,3.032c-1.397,1.521-2.257,3.542-2.257,5.765c0,1.832,0.586,3.528,1.572,4.92
					l-3.134,2.654c-0.316,0.268-0.355,0.741-0.088,1.057c0.148,0.176,0.359,0.266,0.572,0.266c0.172,0,0.344-0.059,0.484-0.178
					l3.132-2.652c1.544,1.527,3.664,2.473,6.002,2.473c2.329,0,4.441-0.939,5.983-2.456l3.123,2.662
					c0.141,0.121,0.314,0.18,0.486,0.18c0.212,0,0.423-0.09,0.57-0.264c0.27-0.315,0.231-0.788-0.084-1.057l-3.126-2.665
					c0.995-1.396,1.587-3.099,1.587-4.941c0-1.718-0.514-3.316-1.39-4.656l3.228-2.532c0.326-0.255,0.383-0.727,0.127-1.053
					C136.723,121.826,136.251,121.766,135.924,122.025z M126.472,137.433c-3.882,0-7.04-3.158-7.04-7.04s3.158-7.04,7.04-7.04
					c3.882,0,7.04,3.158,7.04,7.04S130.354,137.433,126.472,137.433z"/>
				
					<linearGradient id="SVGID_00000029041595047404144670000010580588651020496296_" gradientUnits="userSpaceOnUse" x1="127.4321" y1="164.5272" x2="127.4321" y2="92.2752">
					<stop  offset="0" style="stop-color:#A8FF78"/>
					<stop  offset="1" style="stop-color:#78FFD6"/>
				</linearGradient>
				<path style="fill:url(#SVGID_00000029041595047404144670000010580588651020496296_);" d="M112.423,141.311l-3.132,2.652
					c-1.544-1.527-3.664-2.473-6.002-2.473c-4.709,0-8.54,3.831-8.54,8.54s3.831,8.54,8.54,8.54c4.709,0,8.54-3.831,8.54-8.54
					c0-1.832-0.586-3.528-1.572-4.92l3.134-2.654c0.316-0.268,0.355-0.741,0.088-1.057
					C113.211,141.081,112.738,141.045,112.423,141.311z M103.289,157.07c-3.882,0-7.04-3.158-7.04-7.04
					c0-3.882,3.158-7.04,7.04-7.04c3.882,0,7.04,3.158,7.04,7.04C110.329,153.912,107.171,157.07,103.289,157.07z"/>
				
					<linearGradient id="SVGID_00000081641382117197209640000000362602005151768228_" gradientUnits="userSpaceOnUse" x1="127.4321" y1="164.5272" x2="127.4321" y2="92.2752">
					<stop  offset="0" style="stop-color:#A8FF78"/>
					<stop  offset="1" style="stop-color:#78FFD6"/>
				</linearGradient>
				<path style="fill:url(#SVGID_00000081641382117197209640000000362602005151768228_);" d="M103.289,146.338
					c-2.039,0-3.692,1.653-3.692,3.692c0,2.039,1.653,3.692,3.692,3.692c2.039,0,3.692-1.653,3.692-3.692
					C106.981,147.991,105.328,146.338,103.289,146.338z M103.289,150.979c-0.524,0-0.949-0.425-0.949-0.949
					c0-0.524,0.425-0.949,0.949-0.949c0.524,0,0.949,0.425,0.949,0.949C104.238,150.554,103.813,150.979,103.289,150.979z"/>
				
					<linearGradient id="SVGID_00000150064421195788589840000018388860990026620597_" gradientUnits="userSpaceOnUse" x1="127.4321" y1="164.5272" x2="127.4321" y2="92.2752">
					<stop  offset="0" style="stop-color:#A8FF78"/>
					<stop  offset="1" style="stop-color:#78FFD6"/>
				</linearGradient>
				<path style="fill:url(#SVGID_00000150064421195788589840000018388860990026620597_);" d="M151.574,114.392
					c2.039,0,3.692-1.653,3.692-3.692s-1.653-3.692-3.692-3.692c-2.039,0-3.692,1.653-3.692,3.692S149.535,114.392,151.574,114.392z
					 M151.574,109.751c0.524,0,0.949,0.425,0.949,0.949c0,0.524-0.425,0.949-0.949,0.949c-0.524,0-0.949-0.425-0.949-0.949
					C150.625,110.175,151.05,109.751,151.574,109.751z"/>
				
					<linearGradient id="SVGID_00000079451712442848636410000013304361117598715830_" gradientUnits="userSpaceOnUse" x1="127.4321" y1="164.5272" x2="127.4321" y2="92.2752">
					<stop  offset="0" style="stop-color:#A8FF78"/>
					<stop  offset="1" style="stop-color:#78FFD6"/>
				</linearGradient>
				<path style="fill:url(#SVGID_00000079451712442848636410000013304361117598715830_);" d="M126.472,126.702
					c-2.039,0-3.692,1.653-3.692,3.692c0,2.039,1.653,3.692,3.692,3.692c2.039,0,3.692-1.653,3.692-3.692
					C130.164,128.355,128.511,126.702,126.472,126.702z M126.472,131.343c-0.524,0-0.949-0.425-0.949-0.949
					c0-0.524,0.425-0.949,0.949-0.949c0.524,0,0.949,0.425,0.949,0.949C127.422,130.918,126.997,131.343,126.472,131.343z"/>
			</g>
		</g>
	</g>
	<g>
		<g>
			<g>
				<g>
					
						<linearGradient id="SVGID_00000041993275151665247110000017305456145016985733_" gradientUnits="userSpaceOnUse" x1="129.8506" y1="391.1709" x2="129.8506" y2="372.0586">
						<stop  offset="0" style="stop-color:#A8FF78"/>
						<stop  offset="1" style="stop-color:#78FFD6"/>
					</linearGradient>
					<path style="fill:url(#SVGID_00000041993275151665247110000017305456145016985733_);" d="M49.968,375.967h-6.884v3.774h6.087
						v3.509h-6.087v4.093h6.884v3.642h-11.43v-18.659h11.43V375.967z"/>
					
						<linearGradient id="SVGID_00000033352062760702581820000005008426511105156238_" gradientUnits="userSpaceOnUse" x1="129.8506" y1="391.1709" x2="129.8506" y2="372.0586">
						<stop  offset="0" style="stop-color:#A8FF78"/>
						<stop  offset="1" style="stop-color:#78FFD6"/>
					</linearGradient>
					<path style="fill:url(#SVGID_00000033352062760702581820000005008426511105156238_);" d="M57.999,372.325v15.15h5.954v3.509
						h-10.5v-18.659H57.999z"/>
					
						<linearGradient id="SVGID_00000009574832564559048490000016446933587154684036_" gradientUnits="userSpaceOnUse" x1="129.8506" y1="391.1709" x2="129.8506" y2="372.0586">
						<stop  offset="0" style="stop-color:#A8FF78"/>
						<stop  offset="1" style="stop-color:#78FFD6"/>
					</linearGradient>
					<path style="fill:url(#SVGID_00000009574832564559048490000016446933587154684036_);" d="M78.097,375.967h-6.884v3.774H77.3
						v3.509h-6.087v4.093h6.884v3.642h-11.43v-18.659h11.43V375.967z"/>
					
						<linearGradient id="SVGID_00000038410491015660187300000016939461437975587980_" gradientUnits="userSpaceOnUse" x1="129.8506" y1="391.1709" x2="129.8506" y2="372.0586">
						<stop  offset="0" style="stop-color:#A8FF78"/>
						<stop  offset="1" style="stop-color:#78FFD6"/>
					</linearGradient>
					<path style="fill:url(#SVGID_00000038410491015660187300000016939461437975587980_);" d="M90.195,372.112
						c4.439,0,7.788,2.498,8.852,6.539h-4.998c-0.771-1.595-2.18-2.393-3.907-2.393c-2.791,0-4.705,2.073-4.705,5.369
						s1.914,5.369,4.705,5.369c1.728,0,3.137-0.797,3.907-2.392h4.998c-1.063,4.04-4.413,6.512-8.852,6.512
						c-5.502,0-9.383-3.907-9.383-9.489S84.692,372.112,90.195,372.112z"/>
					
						<linearGradient id="SVGID_00000147199765813352970210000014826698738669551783_" gradientUnits="userSpaceOnUse" x1="129.8506" y1="391.1709" x2="129.8506" y2="372.0586">
						<stop  offset="0" style="stop-color:#A8FF78"/>
						<stop  offset="1" style="stop-color:#78FFD6"/>
					</linearGradient>
					<path style="fill:url(#SVGID_00000147199765813352970210000014826698738669551783_);" d="M101.364,372.325h14.434v3.642h-4.944
						v15.018h-4.545v-15.018h-4.944V372.325z"/>
					
						<linearGradient id="SVGID_00000073705653759996341570000012204325793621760427_" gradientUnits="userSpaceOnUse" x1="129.8506" y1="391.1709" x2="129.8506" y2="372.0586">
						<stop  offset="0" style="stop-color:#A8FF78"/>
						<stop  offset="1" style="stop-color:#78FFD6"/>
					</linearGradient>
					<path style="fill:url(#SVGID_00000073705653759996341570000012204325793621760427_);" d="M126.248,372.325
						c4.572,0,6.858,2.631,6.858,5.874c0,2.339-1.276,4.545-4.147,5.396l4.306,7.39h-5.13l-3.881-7.044h-1.09v7.044h-4.545v-18.659
						H126.248z M125.981,376.1h-2.817v4.625h2.817c1.701,0,2.499-0.877,2.499-2.339C128.48,377.003,127.683,376.1,125.981,376.1z"/>
					
						<linearGradient id="SVGID_00000047041007797244765870000006632415460789372335_" gradientUnits="userSpaceOnUse" x1="129.8506" y1="391.1709" x2="129.8506" y2="372.0586">
						<stop  offset="0" style="stop-color:#A8FF78"/>
						<stop  offset="1" style="stop-color:#78FFD6"/>
					</linearGradient>
					<path style="fill:url(#SVGID_00000047041007797244765870000006632415460789372335_);" d="M145.31,391.171
						c-5.29,0-9.596-3.961-9.596-9.569s4.306-9.543,9.596-9.543c5.316,0,9.542,3.935,9.542,9.543S150.6,391.171,145.31,391.171z
						 M145.31,387.024c2.977,0,4.917-2.153,4.917-5.423c0-3.322-1.94-5.423-4.917-5.423c-3.03,0-4.944,2.101-4.944,5.423
						C140.366,384.871,142.28,387.024,145.31,387.024z"/>
					
						<linearGradient id="SVGID_00000119802625561455401610000006312254897991725746_" gradientUnits="userSpaceOnUse" x1="129.8506" y1="391.1709" x2="129.8506" y2="372.0586">
						<stop  offset="0" style="stop-color:#A8FF78"/>
						<stop  offset="1" style="stop-color:#78FFD6"/>
					</linearGradient>
					<path style="fill:url(#SVGID_00000119802625561455401610000006312254897991725746_);" d="M174.607,372.325v18.659h-4.545
						l-7.602-11.509v11.509h-4.545v-18.659h4.545l7.602,11.563v-11.563H174.607z"/>
					
						<linearGradient id="SVGID_00000170260173380606769520000016914345484798152622_" gradientUnits="userSpaceOnUse" x1="129.8506" y1="391.1709" x2="129.8506" y2="372.0586">
						<stop  offset="0" style="stop-color:#A8FF78"/>
						<stop  offset="1" style="stop-color:#78FFD6"/>
					</linearGradient>
					<path style="fill:url(#SVGID_00000170260173380606769520000016914345484798152622_);" d="M178.44,372.325h4.545v18.659h-4.545
						V372.325z"/>
					
						<linearGradient id="SVGID_00000018212714611562899150000017114344114846057122_" gradientUnits="userSpaceOnUse" x1="129.8506" y1="391.1709" x2="129.8506" y2="372.0586">
						<stop  offset="0" style="stop-color:#A8FF78"/>
						<stop  offset="1" style="stop-color:#78FFD6"/>
					</linearGradient>
					<path style="fill:url(#SVGID_00000018212714611562899150000017114344114846057122_);" d="M195.427,372.112
						c4.439,0,7.788,2.498,8.852,6.539h-4.998c-0.771-1.595-2.18-2.393-3.907-2.393c-2.791,0-4.705,2.073-4.705,5.369
						s1.914,5.369,4.705,5.369c1.728,0,3.137-0.797,3.907-2.392h4.998c-1.063,4.04-4.413,6.512-8.852,6.512
						c-5.502,0-9.383-3.907-9.383-9.489S189.925,372.112,195.427,372.112z"/>
					
						<linearGradient id="SVGID_00000036961265385107963660000000451158339170145182_" gradientUnits="userSpaceOnUse" x1="129.8506" y1="391.1709" x2="129.8506" y2="372.0586">
						<stop  offset="0" style="stop-color:#A8FF78"/>
						<stop  offset="1" style="stop-color:#78FFD6"/>
					</linearGradient>
					<path style="fill:url(#SVGID_00000036961265385107963660000000451158339170145182_);" d="M214.358,391.171
						c-4.014,0-7.15-1.994-7.283-5.769h4.838c0.133,1.436,1.037,2.127,2.313,2.127c1.329,0,2.18-0.665,2.18-1.755
						c0-3.455-9.33-1.595-9.277-8.213c0-3.535,2.897-5.503,6.805-5.503c4.067,0,6.805,2.021,6.991,5.582h-4.917
						c-0.08-1.195-0.93-1.913-2.153-1.94c-1.09-0.026-1.914,0.532-1.914,1.701c0,3.243,9.224,1.781,9.224,8.028
						C221.163,388.565,218.717,391.171,214.358,391.171z"/>
				</g>
			</g>
			
				<text transform="matrix(1 0 0 1 79.4602 403.2122)" style="fill:#FFFFFF; font-family:'Poppins-Medium'; font-size:7.7531px; letter-spacing:1;">YOUR TAGLINE HERE</text>
		</g>
		<g>
			<g>
				
					<linearGradient id="SVGID_00000001661554650547092660000012197694305615830173_" gradientUnits="userSpaceOnUse" x1="129.8661" y1="363.3301" x2="129.8661" y2="304.5793">
					<stop  offset="0" style="stop-color:#A8FF78"/>
					<stop  offset="1" style="stop-color:#78FFD6"/>
				</linearGradient>
				<path style="fill:url(#SVGID_00000001661554650547092660000012197694305615830173_);" d="M174.84,330.171
					c-2.563,0-4.684,1.908-5.031,4.377h-6.281c-0.173,0-0.338,0.068-0.46,0.19l-4.689,4.688h-3.454l-5.684-5.684
					c-0.122-0.122-0.287-0.191-0.46-0.191h-4.337l-6.846-6.846h10.914l5.684,5.685c0.122,0.122,0.287,0.19,0.46,0.19h3.993
					c0.173,0,0.338-0.069,0.46-0.19l3.432-3.432c0.296,0.159,0.628,0.257,0.987,0.257c1.161,0,2.103-0.941,2.103-2.103
					c0-1.161-0.941-2.103-2.103-2.103c-1.161,0-2.103,0.942-2.103,2.103c0,0.327,0.081,0.633,0.214,0.909l-3.26,3.26h-3.454
					l-5.684-5.685c-0.122-0.122-0.287-0.19-0.46-0.19h-12.484l-5.78-5.78v-4.917c2.498-0.321,4.437-2.456,4.437-5.041
					c0-2.805-2.282-5.088-5.087-5.088c-2.805,0-5.087,2.283-5.087,5.088c0,2.584,1.938,4.72,4.437,5.041v4.917l-5.78,5.78h-12.483
					c-0.173,0-0.338,0.069-0.46,0.19l-5.685,5.685h-3.454l-3.26-3.26c0.133-0.276,0.214-0.582,0.214-0.909
					c0-1.161-0.942-2.103-2.103-2.103c-1.161,0-2.103,0.942-2.103,2.103c0,1.161,0.942,2.103,2.103,2.103
					c0.359,0,0.692-0.098,0.987-0.257l3.432,3.432c0.122,0.122,0.287,0.19,0.46,0.19h3.993c0.173,0,0.338-0.069,0.46-0.19
					l5.685-5.685h10.913l-6.846,6.846h-4.336c-0.173,0-0.338,0.069-0.46,0.191l-5.685,5.684h-3.454l-4.689-4.688
					c-0.122-0.122-0.287-0.19-0.46-0.19h-6.281c-0.347-2.469-2.468-4.377-5.031-4.377c-2.805,0-5.087,2.282-5.087,5.087
					c0,2.805,2.282,5.088,5.087,5.088c2.605,0,4.756-1.97,5.05-4.498h5.994l4.689,4.688c0.122,0.122,0.287,0.19,0.46,0.19h3.993
					c0.173,0,0.338-0.069,0.46-0.19l5.685-5.684h4.067l7.133,7.133h-11.469c-0.173,0-0.338,0.069-0.46,0.19l-5.685,5.684h-3.454
					l-3.26-3.259c0.133-0.276,0.214-0.582,0.214-0.908c0-1.161-0.942-2.103-2.103-2.103c-1.161,0-2.103,0.941-2.103,2.103
					c0,1.161,0.942,2.103,2.103,2.103c0.359,0,0.692-0.098,0.987-0.257l3.432,3.432c0.122,0.122,0.287,0.19,0.46,0.19h3.993
					c0.173,0,0.338-0.069,0.46-0.19l5.685-5.684h12.5l5.494,5.493v4.424c-2.498,0.321-4.437,2.456-4.437,5.04
					c0,2.805,2.282,5.087,5.087,5.087c2.805,0,5.087-2.282,5.087-5.087c0-2.584-1.938-4.72-4.437-5.04v-4.424l5.494-5.493h12.501
					l5.684,5.684c0.122,0.122,0.287,0.19,0.46,0.19h3.993c0.173,0,0.338-0.069,0.46-0.19l3.432-3.432
					c0.296,0.158,0.628,0.257,0.987,0.257c1.161,0,2.103-0.941,2.103-2.103c0-1.161-0.941-2.103-2.103-2.103
					c-1.161,0-2.103,0.941-2.103,2.103c0,0.327,0.081,0.632,0.214,0.908l-3.26,3.259h-3.454l-5.684-5.684
					c-0.122-0.122-0.287-0.19-0.46-0.19h-11.47l7.133-7.133h4.068l5.684,5.684c0.122,0.122,0.287,0.19,0.46,0.19h3.993
					c0.173,0,0.338-0.069,0.46-0.19l4.689-4.688h5.994c0.294,2.528,2.445,4.498,5.05,4.498c2.805,0,5.087-2.283,5.087-5.088
					C179.926,332.453,177.645,330.171,174.84,330.171z M84.893,339.046c-2.088,0-3.786-1.699-3.786-3.787
					c0-2.088,1.698-3.786,3.786-3.786c2.088,0,3.786,1.698,3.786,3.786C88.679,337.346,86.981,339.046,84.893,339.046z
					 M130.053,347.403c-0.06-0.018-0.121-0.038-0.187-0.038c-0.066,0-0.127,0.019-0.187,0.038l-6.047-6.047l2.307-2.307h7.855
					l2.307,2.307L130.053,347.403z M126.753,337.315v-6.226h6.227v6.226H126.753z M133.794,329.355h-7.855l-2.307-2.307l0.443-0.443
					c0.092-0.055,0.167-0.13,0.222-0.222l5.569-5.569l5.569,5.569c0.055,0.092,0.13,0.167,0.222,0.222l0.443,0.443L133.794,329.355z
					 M126.08,309.667c0-2.088,1.698-3.787,3.786-3.787c2.088,0,3.786,1.699,3.786,3.787c0,2.088-1.698,3.786-3.786,3.786
					C127.778,313.453,126.08,311.755,126.08,309.667z M122.712,327.967l2.306,2.307v7.855l-2.307,2.307l-6.235-6.234
					L122.712,327.967z M133.652,358.243c0,2.088-1.698,3.786-3.786,3.786c-2.088,0-3.786-1.698-3.786-3.786
					c0-2.088,1.698-3.786,3.786-3.786C131.954,354.457,133.652,356.155,133.652,358.243z M137.02,340.437l-2.307-2.307v-7.855
					l2.306-2.307l6.235,6.235L137.02,340.437z M174.84,339.046c-2.088,0-3.786-1.699-3.786-3.787c0-2.088,1.699-3.786,3.786-3.786
					c2.088,0,3.786,1.698,3.786,3.786C178.626,337.346,176.927,339.046,174.84,339.046z"/>
				
					<linearGradient id="SVGID_00000044863805291783931610000001831514913841253008_" gradientUnits="userSpaceOnUse" x1="129.8661" y1="363.3301" x2="129.8661" y2="304.5793">
					<stop  offset="0" style="stop-color:#A8FF78"/>
					<stop  offset="1" style="stop-color:#78FFD6"/>
				</linearGradient>
				<circle style="fill:url(#SVGID_00000044863805291783931610000001831514913841253008_);" cx="174.839" cy="335.259" r="2.103"/>
				
					<linearGradient id="SVGID_00000113339389536650304400000015427434601102742457_" gradientUnits="userSpaceOnUse" x1="129.8661" y1="363.3301" x2="129.8661" y2="304.5793">
					<stop  offset="0" style="stop-color:#A8FF78"/>
					<stop  offset="1" style="stop-color:#78FFD6"/>
				</linearGradient>
				<circle style="fill:url(#SVGID_00000113339389536650304400000015427434601102742457_);" cx="129.866" cy="309.667" r="2.103"/>
				
					<linearGradient id="SVGID_00000011032271161085284270000015169137851219465617_" gradientUnits="userSpaceOnUse" x1="129.8661" y1="363.3301" x2="129.8661" y2="304.5793">
					<stop  offset="0" style="stop-color:#A8FF78"/>
					<stop  offset="1" style="stop-color:#78FFD6"/>
				</linearGradient>
				<circle style="fill:url(#SVGID_00000011032271161085284270000015169137851219465617_);" cx="129.866" cy="358.243" r="2.103"/>
				
					<linearGradient id="SVGID_00000007405535130407479770000017363473333682969743_" gradientUnits="userSpaceOnUse" x1="129.8661" y1="363.3301" x2="129.8661" y2="304.5793">
					<stop  offset="0" style="stop-color:#A8FF78"/>
					<stop  offset="1" style="stop-color:#78FFD6"/>
				</linearGradient>
				<circle style="fill:url(#SVGID_00000007405535130407479770000017363473333682969743_);" cx="84.893" cy="335.259" r="2.103"/>
			</g>
		</g>
	</g>
	<g>
		<g>
			<g>
				<g>
					
						<linearGradient id="SVGID_00000025426444169638881790000007227402885994544821_" gradientUnits="userSpaceOnUse" x1="370.1187" y1="192.3682" x2="370.1187" y2="173.2563">
						<stop  offset="0" style="stop-color:#A8FF78"/>
						<stop  offset="1" style="stop-color:#78FFD6"/>
					</linearGradient>
					<path style="fill:url(#SVGID_00000025426444169638881790000007227402885994544821_);" d="M290.236,177.164h-6.885v3.774h6.087
						v3.509h-6.087v4.093h6.885v3.642h-11.43v-18.66h11.43V177.164z"/>
					
						<linearGradient id="SVGID_00000062165649984885016340000013082870258427063449_" gradientUnits="userSpaceOnUse" x1="370.1187" y1="192.3682" x2="370.1187" y2="173.2563">
						<stop  offset="0" style="stop-color:#A8FF78"/>
						<stop  offset="1" style="stop-color:#78FFD6"/>
					</linearGradient>
					<path style="fill:url(#SVGID_00000062165649984885016340000013082870258427063449_);" d="M298.267,173.522v15.151h5.954v3.509
						h-10.499v-18.66H298.267z"/>
					
						<linearGradient id="SVGID_00000144313679108414220000000010187047657029865607_" gradientUnits="userSpaceOnUse" x1="370.1187" y1="192.3682" x2="370.1187" y2="173.2563">
						<stop  offset="0" style="stop-color:#A8FF78"/>
						<stop  offset="1" style="stop-color:#78FFD6"/>
					</linearGradient>
					<path style="fill:url(#SVGID_00000144313679108414220000000010187047657029865607_);" d="M318.365,177.164h-6.885v3.774h6.087
						v3.509h-6.087v4.093h6.885v3.642h-11.43v-18.66h11.43V177.164z"/>
					
						<linearGradient id="SVGID_00000101083580213943944560000005656052624608902289_" gradientUnits="userSpaceOnUse" x1="370.1187" y1="192.3682" x2="370.1187" y2="173.2563">
						<stop  offset="0" style="stop-color:#A8FF78"/>
						<stop  offset="1" style="stop-color:#78FFD6"/>
					</linearGradient>
					<path style="fill:url(#SVGID_00000101083580213943944560000005656052624608902289_);" d="M330.463,173.31
						c4.438,0,7.788,2.499,8.852,6.539h-4.998c-0.771-1.595-2.18-2.392-3.907-2.392c-2.791,0-4.704,2.073-4.704,5.369
						s1.913,5.369,4.704,5.369c1.728,0,3.137-0.797,3.907-2.392h4.998c-1.063,4.041-4.413,6.512-8.852,6.512
						c-5.503,0-9.384-3.907-9.384-9.489S324.96,173.31,330.463,173.31z"/>
					
						<linearGradient id="SVGID_00000015342060259341666190000014543542670435309958_" gradientUnits="userSpaceOnUse" x1="370.1187" y1="192.3682" x2="370.1187" y2="173.2563">
						<stop  offset="0" style="stop-color:#A8FF78"/>
						<stop  offset="1" style="stop-color:#78FFD6"/>
					</linearGradient>
					<path style="fill:url(#SVGID_00000015342060259341666190000014543542670435309958_);" d="M341.632,173.522h14.434v3.642h-4.944
						v15.018h-4.545v-15.018h-4.944V173.522z"/>
					
						<linearGradient id="SVGID_00000151538603026925080470000001919480712348909223_" gradientUnits="userSpaceOnUse" x1="370.1187" y1="192.3682" x2="370.1187" y2="173.2563">
						<stop  offset="0" style="stop-color:#A8FF78"/>
						<stop  offset="1" style="stop-color:#78FFD6"/>
					</linearGradient>
					<path style="fill:url(#SVGID_00000151538603026925080470000001919480712348909223_);" d="M366.516,173.522
						c4.571,0,6.857,2.631,6.857,5.875c0,2.339-1.275,4.545-4.146,5.396l4.306,7.39h-5.13l-3.881-7.044h-1.09v7.044h-4.545v-18.66
						H366.516z M366.249,177.297h-2.817v4.625h2.817c1.701,0,2.499-0.877,2.499-2.339
						C368.748,178.201,367.95,177.297,366.249,177.297z"/>
					
						<linearGradient id="SVGID_00000083077519328813960850000011943683717418609591_" gradientUnits="userSpaceOnUse" x1="370.1187" y1="192.3682" x2="370.1187" y2="173.2563">
						<stop  offset="0" style="stop-color:#A8FF78"/>
						<stop  offset="1" style="stop-color:#78FFD6"/>
					</linearGradient>
					<path style="fill:url(#SVGID_00000083077519328813960850000011943683717418609591_);" d="M385.578,192.368
						c-5.29,0-9.596-3.96-9.596-9.569c0-5.609,4.306-9.543,9.596-9.543c5.316,0,9.542,3.934,9.542,9.543
						C395.12,188.408,390.867,192.368,385.578,192.368z M385.578,188.222c2.977,0,4.917-2.153,4.917-5.422
						c0-3.323-1.94-5.423-4.917-5.423c-3.03,0-4.944,2.1-4.944,5.423C380.634,186.068,382.548,188.222,385.578,188.222z"/>
					
						<linearGradient id="SVGID_00000168118314310232384200000012498935537463763612_" gradientUnits="userSpaceOnUse" x1="370.1187" y1="192.3682" x2="370.1187" y2="173.2563">
						<stop  offset="0" style="stop-color:#A8FF78"/>
						<stop  offset="1" style="stop-color:#78FFD6"/>
					</linearGradient>
					<path style="fill:url(#SVGID_00000168118314310232384200000012498935537463763612_);" d="M414.875,173.522v18.66h-4.545
						l-7.603-11.509v11.509h-4.545v-18.66h4.545l7.603,11.563v-11.563H414.875z"/>
					
						<linearGradient id="SVGID_00000111177831509197490970000011753315698909795983_" gradientUnits="userSpaceOnUse" x1="370.1187" y1="192.3682" x2="370.1187" y2="173.2563">
						<stop  offset="0" style="stop-color:#A8FF78"/>
						<stop  offset="1" style="stop-color:#78FFD6"/>
					</linearGradient>
					<path style="fill:url(#SVGID_00000111177831509197490970000011753315698909795983_);" d="M418.708,173.522h4.545v18.66h-4.545
						V173.522z"/>
					
						<linearGradient id="SVGID_00000020393576007819005770000016764023175425217940_" gradientUnits="userSpaceOnUse" x1="370.1187" y1="192.3682" x2="370.1187" y2="173.2563">
						<stop  offset="0" style="stop-color:#A8FF78"/>
						<stop  offset="1" style="stop-color:#78FFD6"/>
					</linearGradient>
					<path style="fill:url(#SVGID_00000020393576007819005770000016764023175425217940_);" d="M435.695,173.31
						c4.438,0,7.788,2.499,8.852,6.539h-4.998c-0.771-1.595-2.18-2.392-3.907-2.392c-2.791,0-4.704,2.073-4.704,5.369
						s1.913,5.369,4.704,5.369c1.728,0,3.137-0.797,3.907-2.392h4.998c-1.063,4.041-4.413,6.512-8.852,6.512
						c-5.503,0-9.384-3.907-9.384-9.489S430.192,173.31,435.695,173.31z"/>
					
						<linearGradient id="SVGID_00000149378765520359598300000006383422095219560324_" gradientUnits="userSpaceOnUse" x1="370.1187" y1="192.3682" x2="370.1187" y2="173.2563">
						<stop  offset="0" style="stop-color:#A8FF78"/>
						<stop  offset="1" style="stop-color:#78FFD6"/>
					</linearGradient>
					<path style="fill:url(#SVGID_00000149378765520359598300000006383422095219560324_);" d="M454.626,192.368
						c-4.014,0-7.15-1.994-7.283-5.768h4.838c0.133,1.436,1.036,2.126,2.313,2.126c1.329,0,2.18-0.665,2.18-1.754
						c0-3.456-9.33-1.595-9.277-8.213c0-3.535,2.897-5.502,6.805-5.502c4.067,0,6.805,2.021,6.991,5.582h-4.918
						c-0.079-1.196-0.93-1.914-2.152-1.94c-1.09-0.026-1.914,0.532-1.914,1.701c0,3.243,9.224,1.781,9.224,8.028
						C461.431,189.763,458.985,192.368,454.626,192.368z"/>
				</g>
			</g>
			
				<text transform="matrix(1 0 0 1 319.7278 204.4094)" style="fill:#FFFFFF; font-family:'Poppins-Medium'; font-size:7.7531px; letter-spacing:1;">YOUR TAGLINE HERE</text>
		</g>
		<g>
			<g>
				
					<linearGradient id="SVGID_00000030482024902710008770000011418580044372843672_" gradientUnits="userSpaceOnUse" x1="370.134" y1="164.5272" x2="370.134" y2="93.025">
					<stop  offset="0" style="stop-color:#A8FF78"/>
					<stop  offset="1" style="stop-color:#78FFD6"/>
				</linearGradient>
				<path style="fill:url(#SVGID_00000030482024902710008770000011418580044372843672_);" d="M401.973,105.498
					c0-2.81-2.286-5.096-5.096-5.096c-2.809,0-5.096,2.286-5.096,5.096c0,2.553,1.893,4.653,4.346,5.02v26.516
					c0,14.081-11.257,25.575-25.243,25.974v-5.762c10.817-0.399,19.5-9.299,19.5-20.212V127.2c0.766-0.3,1.31-1.042,1.31-1.914
					c0-1.138-0.922-2.06-2.06-2.06c-1.137,0-2.06,0.922-2.06,2.06c0,0.872,0.544,1.613,1.309,1.914v9.834
					c0,10.086-8.01,18.314-18,18.712v-5.742c6.823-0.392,12.258-6.05,12.258-12.97v-13.91c2.452-0.366,4.346-2.467,4.346-5.02
					c0-2.81-2.286-5.096-5.096-5.096c-2.81,0-5.096,2.286-5.096,5.096c0,2.553,1.893,4.654,4.346,5.02v13.91
					c0,6.092-4.762,11.081-10.758,11.47V96.999c0.766-0.3,1.31-1.042,1.31-1.914c0-1.138-0.922-2.06-2.06-2.06
					c-1.137,0-2.06,0.922-2.06,2.06c0,0.872,0.544,1.614,1.31,1.914v51.505c-5.996-0.389-10.758-5.377-10.758-11.47v-26.89
					c2.452-0.366,4.346-2.467,4.346-5.02c0-2.81-2.286-5.096-5.096-5.096c-2.81,0-5.096,2.286-5.096,5.096
					c0,2.553,1.893,4.653,4.346,5.02v26.89c0,6.92,5.435,12.578,12.258,12.97v5.742c-9.99-0.398-18-8.626-18-18.712v-3.876
					c0.765-0.3,1.309-1.042,1.309-1.914c0-1.138-0.922-2.06-2.06-2.06c-1.137,0-2.06,0.922-2.06,2.06
					c0,0.872,0.544,1.614,1.31,1.914v3.875c0,10.913,8.683,19.813,19.5,20.212v5.762c-13.987-0.399-25.243-11.893-25.243-25.974
					v-16.57c2.452-0.366,4.346-2.467,4.346-5.02c0-2.81-2.286-5.096-5.096-5.096s-5.096,2.286-5.096,5.096
					c0,2.553,1.893,4.654,4.346,5.02v16.57c0,15.16,12.333,27.493,27.493,27.493c15.16,0,27.493-12.333,27.493-27.493v-26.516
					C400.08,110.151,401.973,108.051,401.973,105.498z M378.796,118.104c0-1.982,1.613-3.596,3.596-3.596
					c1.982,0,3.596,1.613,3.596,3.596s-1.613,3.596-3.596,3.596C380.409,121.7,378.796,120.087,378.796,118.104z M354.28,105.124
					c0-1.982,1.613-3.596,3.596-3.596c1.982,0,3.596,1.613,3.596,3.596c0,1.982-1.613,3.596-3.596,3.596
					C355.894,108.72,354.28,107.106,354.28,105.124z M339.795,115.444c0-1.982,1.613-3.596,3.596-3.596
					c1.982,0,3.596,1.613,3.596,3.596c0,1.982-1.613,3.596-3.596,3.596C341.408,119.04,339.795,117.427,339.795,115.444z
					 M396.877,109.094c-1.982,0-3.596-1.613-3.596-3.596s1.613-3.596,3.596-3.596c1.982,0,3.596,1.613,3.596,3.596
					S398.859,109.094,396.877,109.094z"/>
				
					<linearGradient id="SVGID_00000039836006195049692530000011509815112903399082_" gradientUnits="userSpaceOnUse" x1="370.134" y1="164.5272" x2="370.134" y2="93.025">
					<stop  offset="0" style="stop-color:#A8FF78"/>
					<stop  offset="1" style="stop-color:#78FFD6"/>
				</linearGradient>
				<circle style="fill:url(#SVGID_00000039836006195049692530000011509815112903399082_);" cx="396.877" cy="105.498" r="2.06"/>
				
					<linearGradient id="SVGID_00000108292463981043374890000003685883486314843834_" gradientUnits="userSpaceOnUse" x1="370.134" y1="164.5272" x2="370.134" y2="93.025">
					<stop  offset="0" style="stop-color:#A8FF78"/>
					<stop  offset="1" style="stop-color:#78FFD6"/>
				</linearGradient>
				<path style="fill:url(#SVGID_00000108292463981043374890000003685883486314843834_);" d="M384.451,118.104
					c0-1.138-0.922-2.06-2.06-2.06c-1.138,0-2.06,0.922-2.06,2.06c0,1.137,0.922,2.06,2.06,2.06
					C383.529,120.164,384.451,119.242,384.451,118.104z"/>
				
					<linearGradient id="SVGID_00000116955884405158996900000001720463157899197317_" gradientUnits="userSpaceOnUse" x1="370.134" y1="164.5272" x2="370.134" y2="93.025">
					<stop  offset="0" style="stop-color:#A8FF78"/>
					<stop  offset="1" style="stop-color:#78FFD6"/>
				</linearGradient>
				<path style="fill:url(#SVGID_00000116955884405158996900000001720463157899197317_);" d="M345.45,115.444
					c0-1.137-0.922-2.06-2.06-2.06c-1.138,0-2.06,0.922-2.06,2.06c0,1.138,0.922,2.06,2.06,2.06
					C344.528,117.504,345.45,116.582,345.45,115.444z"/>
				
					<linearGradient id="SVGID_00000096025850810410431940000004158287744366791812_" gradientUnits="userSpaceOnUse" x1="370.134" y1="164.5272" x2="370.134" y2="93.025">
					<stop  offset="0" style="stop-color:#A8FF78"/>
					<stop  offset="1" style="stop-color:#78FFD6"/>
				</linearGradient>
				<path style="fill:url(#SVGID_00000096025850810410431940000004158287744366791812_);" d="M359.936,105.124
					c0-1.137-0.922-2.06-2.06-2.06c-1.138,0-2.06,0.922-2.06,2.06c0,1.138,0.922,2.06,2.06,2.06
					C359.014,107.184,359.936,106.262,359.936,105.124z"/>
			</g>
		</g>
	</g>
	<g>
		<g>
			<g>
				<g>
					
						<linearGradient id="SVGID_00000110468519548356127400000017223434186883999893_" gradientUnits="userSpaceOnUse" x1="370.1187" y1="391.1709" x2="370.1187" y2="372.0586">
						<stop  offset="0" style="stop-color:#A8FF78"/>
						<stop  offset="1" style="stop-color:#78FFD6"/>
					</linearGradient>
					<path style="fill:url(#SVGID_00000110468519548356127400000017223434186883999893_);" d="M290.236,375.967h-6.885v3.774h6.087
						v3.509h-6.087v4.093h6.885v3.642h-11.43v-18.659h11.43V375.967z"/>
					
						<linearGradient id="SVGID_00000116927094366469496500000008322202970339754400_" gradientUnits="userSpaceOnUse" x1="370.1187" y1="391.1709" x2="370.1187" y2="372.0586">
						<stop  offset="0" style="stop-color:#A8FF78"/>
						<stop  offset="1" style="stop-color:#78FFD6"/>
					</linearGradient>
					<path style="fill:url(#SVGID_00000116927094366469496500000008322202970339754400_);" d="M298.267,372.325v15.15h5.954v3.509
						h-10.499v-18.659H298.267z"/>
					
						<linearGradient id="SVGID_00000046304271978386821380000002054406482531394195_" gradientUnits="userSpaceOnUse" x1="370.1187" y1="391.1709" x2="370.1187" y2="372.0586">
						<stop  offset="0" style="stop-color:#A8FF78"/>
						<stop  offset="1" style="stop-color:#78FFD6"/>
					</linearGradient>
					<path style="fill:url(#SVGID_00000046304271978386821380000002054406482531394195_);" d="M318.365,375.967h-6.885v3.774h6.087
						v3.509h-6.087v4.093h6.885v3.642h-11.43v-18.659h11.43V375.967z"/>
					
						<linearGradient id="SVGID_00000111184136362431769310000001347192861176390575_" gradientUnits="userSpaceOnUse" x1="370.1187" y1="391.1709" x2="370.1187" y2="372.0586">
						<stop  offset="0" style="stop-color:#A8FF78"/>
						<stop  offset="1" style="stop-color:#78FFD6"/>
					</linearGradient>
					<path style="fill:url(#SVGID_00000111184136362431769310000001347192861176390575_);" d="M330.463,372.112
						c4.438,0,7.788,2.498,8.852,6.539h-4.998c-0.771-1.595-2.18-2.393-3.907-2.393c-2.791,0-4.704,2.073-4.704,5.369
						s1.913,5.369,4.704,5.369c1.728,0,3.137-0.797,3.907-2.392h4.998c-1.063,4.04-4.413,6.512-8.852,6.512
						c-5.503,0-9.384-3.907-9.384-9.489S324.96,372.112,330.463,372.112z"/>
					
						<linearGradient id="SVGID_00000142155475585698621870000014695245255052637853_" gradientUnits="userSpaceOnUse" x1="370.1187" y1="391.1709" x2="370.1187" y2="372.0586">
						<stop  offset="0" style="stop-color:#A8FF78"/>
						<stop  offset="1" style="stop-color:#78FFD6"/>
					</linearGradient>
					<path style="fill:url(#SVGID_00000142155475585698621870000014695245255052637853_);" d="M341.632,372.325h14.434v3.642h-4.944
						v15.018h-4.545v-15.018h-4.944V372.325z"/>
					
						<linearGradient id="SVGID_00000060018850233824798630000010711640070306829989_" gradientUnits="userSpaceOnUse" x1="370.1187" y1="391.1709" x2="370.1187" y2="372.0586">
						<stop  offset="0" style="stop-color:#A8FF78"/>
						<stop  offset="1" style="stop-color:#78FFD6"/>
					</linearGradient>
					<path style="fill:url(#SVGID_00000060018850233824798630000010711640070306829989_);" d="M366.516,372.325
						c4.571,0,6.857,2.631,6.857,5.874c0,2.339-1.275,4.545-4.146,5.396l4.306,7.39h-5.13l-3.881-7.044h-1.09v7.044h-4.545v-18.659
						H366.516z M366.249,376.1h-2.817v4.625h2.817c1.701,0,2.499-0.877,2.499-2.339C368.748,377.003,367.95,376.1,366.249,376.1z"/>
					
						<linearGradient id="SVGID_00000141432694244552782400000015027103687753812117_" gradientUnits="userSpaceOnUse" x1="370.1187" y1="391.1709" x2="370.1187" y2="372.0586">
						<stop  offset="0" style="stop-color:#A8FF78"/>
						<stop  offset="1" style="stop-color:#78FFD6"/>
					</linearGradient>
					<path style="fill:url(#SVGID_00000141432694244552782400000015027103687753812117_);" d="M385.578,391.171
						c-5.29,0-9.596-3.961-9.596-9.569s4.306-9.543,9.596-9.543c5.316,0,9.542,3.935,9.542,9.543S390.867,391.171,385.578,391.171z
						 M385.578,387.024c2.977,0,4.917-2.153,4.917-5.423c0-3.322-1.94-5.423-4.917-5.423c-3.03,0-4.944,2.101-4.944,5.423
						C380.634,384.871,382.548,387.024,385.578,387.024z"/>
					
						<linearGradient id="SVGID_00000063627679179830174230000005457872953809388464_" gradientUnits="userSpaceOnUse" x1="370.1187" y1="391.1709" x2="370.1187" y2="372.0586">
						<stop  offset="0" style="stop-color:#A8FF78"/>
						<stop  offset="1" style="stop-color:#78FFD6"/>
					</linearGradient>
					<path style="fill:url(#SVGID_00000063627679179830174230000005457872953809388464_);" d="M414.875,372.325v18.659h-4.545
						l-7.603-11.509v11.509h-4.545v-18.659h4.545l7.603,11.563v-11.563H414.875z"/>
					
						<linearGradient id="SVGID_00000062163268006910696890000010769827671903346108_" gradientUnits="userSpaceOnUse" x1="370.1187" y1="391.1709" x2="370.1187" y2="372.0586">
						<stop  offset="0" style="stop-color:#A8FF78"/>
						<stop  offset="1" style="stop-color:#78FFD6"/>
					</linearGradient>
					<path style="fill:url(#SVGID_00000062163268006910696890000010769827671903346108_);" d="M418.708,372.325h4.545v18.659h-4.545
						V372.325z"/>
					
						<linearGradient id="SVGID_00000043434740374885016020000007916190155176953990_" gradientUnits="userSpaceOnUse" x1="370.1187" y1="391.1709" x2="370.1187" y2="372.0586">
						<stop  offset="0" style="stop-color:#A8FF78"/>
						<stop  offset="1" style="stop-color:#78FFD6"/>
					</linearGradient>
					<path style="fill:url(#SVGID_00000043434740374885016020000007916190155176953990_);" d="M435.695,372.112
						c4.438,0,7.788,2.498,8.852,6.539h-4.998c-0.771-1.595-2.18-2.393-3.907-2.393c-2.791,0-4.704,2.073-4.704,5.369
						s1.913,5.369,4.704,5.369c1.728,0,3.137-0.797,3.907-2.392h4.998c-1.063,4.04-4.413,6.512-8.852,6.512
						c-5.503,0-9.384-3.907-9.384-9.489S430.192,372.112,435.695,372.112z"/>
					
						<linearGradient id="SVGID_00000050662736957902065640000016437969532259895215_" gradientUnits="userSpaceOnUse" x1="370.1187" y1="391.1709" x2="370.1187" y2="372.0586">
						<stop  offset="0" style="stop-color:#A8FF78"/>
						<stop  offset="1" style="stop-color:#78FFD6"/>
					</linearGradient>
					<path style="fill:url(#SVGID_00000050662736957902065640000016437969532259895215_);" d="M454.626,391.171
						c-4.014,0-7.15-1.994-7.283-5.769h4.838c0.133,1.436,1.036,2.127,2.313,2.127c1.329,0,2.18-0.665,2.18-1.755
						c0-3.455-9.33-1.595-9.277-8.213c0-3.535,2.897-5.503,6.805-5.503c4.067,0,6.805,2.021,6.991,5.582h-4.918
						c-0.079-1.195-0.93-1.913-2.152-1.94c-1.09-0.026-1.914,0.532-1.914,1.701c0,3.243,9.224,1.781,9.224,8.028
						C461.431,388.565,458.985,391.171,454.626,391.171z"/>
				</g>
			</g>
			
				<text transform="matrix(1 0 0 1 319.7278 403.2122)" style="fill:#FFFFFF; font-family:'Poppins-Medium'; font-size:7.7531px; letter-spacing:1;">YOUR TAGLINE HERE</text>
		</g>
		<g>
			
				<linearGradient id="SVGID_00000026141918366418867010000004926813734731762318_" gradientUnits="userSpaceOnUse" x1="370.1329" y1="357.6495" x2="370.1329" y2="291.8804">
				<stop  offset="0" style="stop-color:#A8FF78"/>
				<stop  offset="1" style="stop-color:#78FFD6"/>
			</linearGradient>
			<path style="fill:url(#SVGID_00000026141918366418867010000004926813734731762318_);" d="M408.283,328.925l-36.305-36.305
				c-0.986-0.987-2.705-0.985-3.69,0l-36.305,36.305c-0.493,0.492-0.765,1.147-0.765,1.845c0,0.696,0.272,1.352,0.765,1.845
				l24.159,24.159c0.069,0.069,0.152,0.124,0.244,0.162c0.183,0.076,0.39,0.076,0.573,0c0.183-0.076,0.329-0.222,0.405-0.405
				c0.038-0.092,0.058-0.189,0.058-0.287v-14.75l3.072-3.072c0.141-0.141,0.22-0.331,0.22-0.53v-6.422
				c3.026-0.371,5.379-2.953,5.379-6.078c0-3.379-2.749-6.128-6.129-6.128c-3.379,0-6.128,2.749-6.128,6.128
				c0,3.125,2.352,5.707,5.378,6.078v6.111l-3.072,3.072c-0.141,0.141-0.22,0.331-0.22,0.53v13.25l-9.494-9.494v-10.232
				c1.039-0.322,1.799-1.279,1.799-2.424c0-1.408-1.141-2.549-2.549-2.549c-1.408,0-2.549,1.141-2.549,2.549
				c0,1.145,0.76,2.102,1.799,2.424v8.732l-11.885-11.885c-0.21-0.21-0.325-0.488-0.325-0.784s0.115-0.574,0.325-0.784
				l36.305-36.305c0.42-0.42,1.148-0.42,1.568,0l36.305,36.305c0.432,0.433,0.432,1.136,0,1.568l-8.677,8.676v-5.524
				c1.039-0.322,1.799-1.279,1.799-2.424c0-1.408-1.141-2.549-2.549-2.549c-1.408,0-2.549,1.141-2.549,2.549
				c0,1.145,0.76,2.102,1.8,2.424v7.023l-13.359,13.359v-13.596l3.072-3.072c0.141-0.141,0.22-0.331,0.22-0.53v-6.422
				c3.026-0.372,5.378-2.953,5.378-6.078c0-3.379-2.749-6.128-6.128-6.128c-3.38,0-6.129,2.749-6.129,6.128
				c0,3.126,2.352,5.707,5.379,6.078v6.111l-3.072,3.072c-0.141,0.141-0.22,0.331-0.22,0.53V356.9c0,0.098,0.02,0.195,0.058,0.287
				c0.076,0.183,0.222,0.329,0.405,0.405c0.092,0.038,0.189,0.058,0.287,0.058c0.098,0,0.195-0.02,0.287-0.058
				c0.092-0.038,0.174-0.093,0.243-0.162l14.858-14.858c0.001-0.001,0.001-0.001,0.002-0.002l9.956-9.956
				C409.3,331.597,409.3,329.941,408.283,328.925z M355.338,325.391c0-2.552,2.076-4.628,4.628-4.628
				c2.553,0,4.629,2.076,4.629,4.628c0,2.553-2.076,4.629-4.629,4.629C357.414,330.02,355.338,327.943,355.338,325.391z
				 M381.6,325.391c0-2.552,2.076-4.628,4.629-4.628c2.552,0,4.628,2.076,4.628,4.628c0,2.553-2.076,4.629-4.628,4.629
				C383.676,330.02,381.6,327.943,381.6,325.391z"/>
			
				<linearGradient id="SVGID_00000142170687219600487500000004796045428245270715_" gradientUnits="userSpaceOnUse" x1="370.1337" y1="313.5147" x2="370.1337" y2="308.4164">
				<stop  offset="0" style="stop-color:#A8FF78"/>
				<stop  offset="1" style="stop-color:#78FFD6"/>
			</linearGradient>
			<path style="fill:url(#SVGID_00000142170687219600487500000004796045428245270715_);" d="M372.683,310.966
				c0-1.408-1.141-2.549-2.549-2.549c-1.408,0-2.549,1.141-2.549,2.549c0,1.408,1.141,2.549,2.549,2.549
				C371.541,313.515,372.683,312.373,372.683,310.966z"/>
			
				<linearGradient id="SVGID_00000106136126141894271670000017850721434663806383_" gradientUnits="userSpaceOnUse" x1="386.2285" y1="327.9401" x2="386.2285" y2="322.8418">
				<stop  offset="0" style="stop-color:#A8FF78"/>
				<stop  offset="1" style="stop-color:#78FFD6"/>
			</linearGradient>
			<path style="fill:url(#SVGID_00000106136126141894271670000017850721434663806383_);" d="M388.778,325.391
				c0-1.408-1.141-2.549-2.549-2.549s-2.549,1.141-2.549,2.549c0,1.408,1.141,2.549,2.549,2.549S388.778,326.799,388.778,325.391z"
				/>
			
				<linearGradient id="SVGID_00000084516700281376146630000015031073495348295570_" gradientUnits="userSpaceOnUse" x1="359.9663" y1="327.9401" x2="359.9663" y2="322.8418">
				<stop  offset="0" style="stop-color:#A8FF78"/>
				<stop  offset="1" style="stop-color:#78FFD6"/>
			</linearGradient>
			<path style="fill:url(#SVGID_00000084516700281376146630000015031073495348295570_);" d="M362.515,325.391
				c0-1.408-1.141-2.549-2.549-2.549c-1.408,0-2.549,1.141-2.549,2.549c0,1.408,1.141,2.549,2.549,2.549
				C361.374,327.94,362.515,326.799,362.515,325.391z"/>
			
				<linearGradient id="SVGID_00000149383075893165494970000016314650443829530776_" gradientUnits="userSpaceOnUse" x1="370.7077" y1="362.3721" x2="370.7077" y2="304.837">
				<stop  offset="0" style="stop-color:#A8FF78"/>
				<stop  offset="1" style="stop-color:#78FFD6"/>
			</linearGradient>
			<path style="fill:url(#SVGID_00000149383075893165494970000016314650443829530776_);" d="M370.884,331.315v-14.271
				c3.026-0.372,5.378-2.953,5.378-6.077c0-3.38-2.749-6.129-6.128-6.129c-3.38,0-6.129,2.749-6.129,6.129
				c0,3.125,2.352,5.706,5.379,6.077v14.582c0,0.199,0.079,0.39,0.22,0.53l6.307,6.307v6.957l-6.285,5.803
				c-0.153,0.142-0.241,0.342-0.241,0.551v9.85c0,0.414,0.336,0.75,0.75,0.75c0.414,0,0.75-0.336,0.75-0.75v-9.521l6.285-5.803
				c0.153-0.142,0.241-0.342,0.241-0.551v-7.596c0-0.199-0.079-0.39-0.22-0.53L370.884,331.315z M365.505,310.966
				c0-2.553,2.076-4.629,4.629-4.629c2.552,0,4.628,2.076,4.628,4.629c0,2.552-2.076,4.628-4.628,4.628
				C367.581,315.594,365.505,313.518,365.505,310.966z"/>
		</g>
	</g>
</g>
</svg>
